<svg id="Layer_1" data-name="Layer 1" xmlns="http://www.w3.org/2000/svg" viewBox="0 0 50 50"><defs><style>.cls-1{fill:#001024;}</style></defs><path class="cls-1" d="M8.2,15c5.21-3.56,10.32-7,15.44-10.53a2.28,2.28,0,0,1,2.74,0l9.86,6.72,5.6,3.82c-1.78,1.17-3.43,2.37-5.05,3.58-2.37,1.78-4.81,3.46-7.14,5.3-1.32,1.06-2.84,1.86-4.09,3-.52.49-.88.16-1.32-.15C18.93,22.89,13.61,19,8.2,15Z"/><path class="cls-1" d="M6.92,17.07c3.16,2.34,6.12,4.55,9.1,6.72,2.26,1.66,4.55,3.29,6.84,4.92a1.7,1.7,0,0,1,.84,1.58c0,5.19,0,10.38,0,15.66a9.37,9.37,0,0,1-2.16-1.41c-4.34-3.15-8.62-6.37-13-9.49a3.61,3.61,0,0,1-1.64-3.28C7,26.94,6.92,22.12,6.92,17.07Z"/><path class="cls-1" d="M26.29,45.91V41.16c0-3.67,0-7.34,0-11A1.27,1.27,0,0,1,26.8,29q8-5.76,15.88-11.56a4.38,4.38,0,0,1,.4-.22v2.65c0,4.1,0,8.21,0,12.31a2.9,2.9,0,0,1-1.33,2.67c-3.18,2.16-6.21,4.52-9.33,6.75a47.68,47.68,0,0,0-5.33,4A1,1,0,0,1,26.29,45.91Z"/></svg>