<svg id="Layer_1" data-name="Layer 1" xmlns="http://www.w3.org/2000/svg" xmlns:xlink="http://www.w3.org/1999/xlink" viewBox="0 0 50 50"><defs><style>.cls-1{fill:#394867;}</style></defs><image width="55" height="55" transform="translate(-53 45)" xlink:href="icon/image%201.png"/><path class="cls-1" d="M4.22,24.66a1.19,1.19,0,0,0,.09-.15,1.59,1.59,0,0,1,1.48-1.1h.44l.06-.15c.42-1.5.85-3,1.27-4.49l1.53-5.38a1.48,1.48,0,0,1,1-1.08,1.62,1.62,0,0,1,2.16,1.27c.23,1.46.45,2.92.68,4.38.19,1.24.38,2.48.58,3.72s.38,2.5.58,3.75a3.82,3.82,0,0,0,.11.55.5.5,0,0,0,.05-.13c.29-1.24.57-2.49.86-3.73q.57-2.48,1.13-4.95c.28-1.2.55-2.39.82-3.58a1.65,1.65,0,0,1,.87-1.19,1.58,1.58,0,0,1,2.23.92c.19.62.36,1.25.54,1.88l.93,3.27c.44,1.58.9,3.17,1.35,4.75,0,.06,0,.11.05.19h3.84a.31.31,0,0,0,.3-.16,3.18,3.18,0,0,1,5.66.71,3.18,3.18,0,0,1-2.57,4.2,3.05,3.05,0,0,1-3.08-1.39.34.34,0,0,0-.32-.17h-5a1.62,1.62,0,0,1-1.24-.52,1.67,1.67,0,0,1-.37-.71c-.47-1.63-.93-3.26-1.4-4.89a.65.65,0,0,0-.09-.19l-.15.63c-.34,1.46-.67,2.93-1,4.39-.43,1.85-.85,3.7-1.28,5.55-.31,1.37-.63,2.74-1,4.1a1.57,1.57,0,0,1-1.58,1.25,1.6,1.6,0,0,1-1.55-1.35l-.63-4.08c-.2-1.24-.39-2.47-.58-3.71s-.35-2.26-.53-3.39c-.11-.69-.21-1.38-.32-2.08a.33.33,0,0,0-.07-.13c-.07.24-.13.47-.2.7L9,25.4a1.58,1.58,0,0,1-1.6,1.2H5.86A1.59,1.59,0,0,1,4.3,25.49a.42.42,0,0,0-.08-.12Z"/><path class="cls-1" d="M45.78,25a16.14,16.14,0,0,1-8.07,13.9,1.61,1.61,0,0,1-2.3-.71,1.59,1.59,0,0,1,.64-2A14.91,14.91,0,0,0,37.75,35a12.79,12.79,0,0,0,3.48-4.28,12.42,12.42,0,0,0,1.15-3.47,12.68,12.68,0,0,0,.11-3.79,12.81,12.81,0,0,0-5.41-9c-.34-.24-.7-.45-1.06-.66a1.64,1.64,0,0,1-.77-1.61,1.59,1.59,0,0,1,1.24-1.32,1.55,1.55,0,0,1,1.11.17,16.32,16.32,0,0,1,2.93,2.1,16.06,16.06,0,0,1,3.71,5A15.64,15.64,0,0,1,45.65,23,17,17,0,0,1,45.78,25Z"/><path class="cls-1" d="M39.37,25a9.66,9.66,0,0,1-4.82,8.3,1.6,1.6,0,1,1-1.65-2.74,9.63,9.63,0,0,0,1-.68,6.11,6.11,0,0,0,2.18-3.66A6.32,6.32,0,0,0,33,19.49a1.74,1.74,0,0,1-.78-.87,1.61,1.61,0,0,1,1.24-2.15,1.63,1.63,0,0,1,1.14.22,9.57,9.57,0,0,1,4.79,7.68C39.38,24.58,39.37,24.8,39.37,25Z"/></svg>