<svg id="Layer_1" data-name="Layer 1" xmlns="http://www.w3.org/2000/svg" xmlns:xlink="http://www.w3.org/1999/xlink" viewBox="0 0 50 50"><defs><style>.cls-1{fill:#394867;}</style></defs><image width="55" height="55" transform="translate(-53 45)" xlink:href="icon/image%201.png"/><path class="cls-1" d="M23.81,5.94h2.3l.32.06a18.14,18.14,0,0,1,7.48,2.19c1.09.6,2.12,1.32,3.22,2,.16-.16.36-.4.59-.6a.52.52,0,0,0,.16-.55,2.45,2.45,0,1,1,2,2,.54.54,0,0,0-.38.05,9.9,9.9,0,0,0-.75.71l.31.35a18.58,18.58,0,0,1,4.64,9.54c.12.7.2,1.42.29,2.12v2.31c-.06.46-.11.93-.17,1.39a18.81,18.81,0,0,1-4.62,10,18.68,18.68,0,0,1-10.9,6.13c-.71.13-1.42.2-2.12.3H23.88a1.65,1.65,0,0,0-.32-.06,18.56,18.56,0,0,1-8.07-2.51c-.88-.52-1.71-1.13-2.62-1.73a6.27,6.27,0,0,1-.57.61.64.64,0,0,0-.24.71,1.69,1.69,0,0,1,0,.74,2.45,2.45,0,0,1-2.8,2,2.46,2.46,0,1,1,.85-4.84.45.45,0,0,0,.33-.06c.29-.23.55-.49.83-.75l-.32-.36A18.65,18.65,0,0,1,6,25.83a18.41,18.41,0,0,1,4.1-12.65A18.59,18.59,0,0,1,21.76,6.23C22.44,6.1,23.13,6,23.81,5.94ZM25,8.8A16.18,16.18,0,1,0,41.15,25,16.19,16.19,0,0,0,25,8.8Z"/><path class="cls-1" d="M37.27,19.71a14,14,0,0,1-1.89,6.67,19.41,19.41,0,0,1-3.58,4.67,1.5,1.5,0,0,0-.48,1.13,11.94,11.94,0,0,1-.94,4.37,6.75,6.75,0,0,1-1.09,1.7,2.78,2.78,0,0,1-3.22.73,6.57,6.57,0,0,1-2.82-2.23,1.06,1.06,0,0,0-1.16-.49,7.33,7.33,0,0,1-3.8-.28,5.76,5.76,0,0,1-4-5.09A12.1,12.1,0,0,1,16,23.53c.49-.9,1.11-1.73,1.65-2.6a1.39,1.39,0,0,0,.21-.64A18.41,18.41,0,0,1,18.46,15a7,7,0,0,1,1.21-2.49,3,3,0,0,1,3.78-.91,7.47,7.47,0,0,1,2.74,2.34.41.41,0,0,0,.56.15,10.33,10.33,0,0,1,5.82-.53,5.85,5.85,0,0,1,4.6,5.07C37.22,19,37.25,19.45,37.27,19.71ZM25.81,17.33a18,18,0,0,0-5.44,4.44.6.6,0,0,0-.12.43c.13,1,.25,2.09.45,3.12a25.08,25.08,0,0,0,2.72,7.59c.14.25.26.28.52.19a16.14,16.14,0,0,0,4.93-2.9.62.62,0,0,0,.24-.57,28,28,0,0,0-1.86-9C26.84,19.49,26.31,18.44,25.81,17.33Zm2.06-.85a32.1,32.1,0,0,1,3.36,11.31l.22-.25A15.93,15.93,0,0,0,33.59,24a9.33,9.33,0,0,0,.91-4.13,3.7,3.7,0,0,0-3.11-3.75A7.19,7.19,0,0,0,27.87,16.48Zm-6.69,17.1a32.93,32.93,0,0,1-2.87-8.7,6,6,0,0,0-.47.91,8.39,8.39,0,0,0-.78,4.55A3.71,3.71,0,0,0,21.18,33.58Zm2.91-18.43A8.78,8.78,0,0,0,23,14.51a1.3,1.3,0,0,0-1.55.36,5.32,5.32,0,0,0-1.11,3Zm1.34,20.3a5.86,5.86,0,0,0,.56.36,1.42,1.42,0,0,0,1.58,0,3.5,3.5,0,0,0,1.17-2.12Z"/><path class="cls-1" d="M25,28.92A3,3,0,1,1,28,26,3,3,0,0,1,25,28.92Zm0-3.7a.76.76,0,0,0-.75.72.73.73,0,0,0,.71.75.74.74,0,0,0,.77-.73A.76.76,0,0,0,25,25.22Z"/></svg>