<svg id="Layer_1" data-name="Layer 1" xmlns="http://www.w3.org/2000/svg" xmlns:xlink="http://www.w3.org/1999/xlink" viewBox="0 0 50 50"><defs><style>.cls-1{fill:#394867;}</style></defs><image width="55" height="55" transform="translate(-53 45)" xlink:href="icon/image%201.png"/><path class="cls-1" d="M2.68,25a5.89,5.89,0,0,1,.55-.65L22.62,8.2a3.41,3.41,0,0,1,4.77,0l6,5.06.4.32c0-.2,0-.34,0-.48,0-1.54,0-3.08,0-4.62,0-.88.29-1.16,1.18-1.16H39.8c.84,0,1.15.31,1.15,1.16q0,5.29,0,10.59a.83.83,0,0,0,.35.73c1.82,1.5,3.62,3,5.43,4.51.74.61.78,1,.18,1.75l-1.35,1.61A1,1,0,0,1,44,27.8L25.57,12.45,25,12c-.7.58-1.39,1.15-2.07,1.73q-8.44,7-16.87,14.06a1,1,0,0,1-1.64-.14l-1.74-2.1Z"/><path class="cls-1" d="M25,14.42l7.36,6.07,8.24,6.79A.82.82,0,0,1,41,28q0,6.37,0,12.73a1.83,1.83,0,0,1-2,2H29l-.43,0V32.17h-7.1V42.75l-.48,0h-9.9a1.84,1.84,0,0,1-2-2.06q0-6.35,0-12.68a.89.89,0,0,1,.37-.77Q17,21,24.57,14.76Z"/></svg>