<svg id="Layer_1" data-name="Layer 1" xmlns="http://www.w3.org/2000/svg" viewBox="0 0 50 50"><defs><style>.cls-1{fill:#394867;}</style></defs><path class="cls-1" d="M22.24,24.08,16,23.75A10,10,0,0,1,28.13,20.2c3.53,1.68,4.59,5.41,2.69,9.85-.72,1.69-1.68,3.28-2.46,4.95-1.64,3.51-1.21,4.1,2.62,3.85a10.81,10.81,0,0,1,1.88.21C31.28,42.61,26.29,44.31,22,43c-3.39-1-5.17-4-4.32-7.8A38.45,38.45,0,0,1,20.14,29Z"/><path class="cls-1" d="M34,11.86a5.39,5.39,0,0,1-5.45,5.34,5.48,5.48,0,0,1-5.33-5.51,5.4,5.4,0,0,1,5.33-5.12A5.21,5.21,0,0,1,34,11.86Z"/></svg>