<svg id="Layer_1" data-name="Layer 1" xmlns="http://www.w3.org/2000/svg" viewBox="0 0 50 50"><defs><style>.cls-1{fill:#394867;}</style></defs><path class="cls-1" d="M31.24,6l.7.19a4.14,4.14,0,0,1,2.91,4c0,1.72,0,3.44,0,5.15a1.37,1.37,0,1,1-2.73,0v-5a1.43,1.43,0,0,0-1.6-1.6H14.94l-.4,0,.37.23c2.52,1.45,5,2.92,7.55,4.35a4.23,4.23,0,0,1,2.27,4c0,5.8,0,11.6,0,17.4v.52l.41,0h5.38a1.45,1.45,0,0,0,1.62-1.63c0-1.46,0-2.92,0-4.38a1.36,1.36,0,0,1,2.61-.52,1.61,1.61,0,0,1,.11.61c0,1.48,0,2.95,0,4.42a4.11,4.11,0,0,1-4.06,4.2c-1.87.06-3.74,0-5.61,0h-.47c0,.62,0,1.2,0,1.78a4.11,4.11,0,0,1-6.19,3.71c-2.82-1.63-5.64-3.24-8.44-4.88A3.93,3.93,0,0,1,8,35Q8,22.59,8,10.19a4.11,4.11,0,0,1,3.49-4.13A.52.52,0,0,0,11.64,6Z"/><path class="cls-1" d="M37.35,20.62c-.53-.52-1-1-1.41-1.41a1.36,1.36,0,1,1,1.91-1.93q1.83,1.81,3.64,3.64a1.36,1.36,0,0,1,0,2.09q-1.81,1.83-3.64,3.65a1.37,1.37,0,0,1-2,.1,1.39,1.39,0,0,1,.1-2l1.25-1.26s0-.05,0-.13H36.8c-3.11,0-6.23,0-9.35,0a1.35,1.35,0,0,1-1.5-1.4,1.33,1.33,0,0,1,1.26-1.31c.14,0,.28,0,.41,0h9.73Z"/></svg>