<svg id="Layer_1" data-name="Layer 1" xmlns="http://www.w3.org/2000/svg" xmlns:xlink="http://www.w3.org/1999/xlink" viewBox="0 0 50 50"><defs><style>.cls-1{fill:#394867;}</style></defs><image width="55" height="55" transform="translate(-53 45)" xlink:href="icon/image%201.png"/><path class="cls-1" d="M14.88,44.48l-1.56,0L7.8,44.4H7.53a2.51,2.51,0,0,1,0-.31c.75-2.59,1.5-5.17,2.26-7.76l2.47-8.44c0-.18.12-.25.31-.25h5a.32.32,0,0,1,.32.17L19,29.42h-.27l-4.86,0c-.19,0-.25.07-.3.23q-1.75,6-3.52,12c-.1.31-.18.63-.27,1H40.2c-.08-.33-.16-.64-.25-1q-1.77-6-3.53-12a.27.27,0,0,0-.31-.23c-1.57,0-3.14-.06-4.71-.09l-.31,0c.12-.19.21-.35.31-.5.24-.35.47-.72.72-1.07a.38.38,0,0,1,.25-.13h5.07a.21.21,0,0,1,.24.17c1,3.63,2.12,7.25,3.18,10.87L42.42,44a.37.37,0,0,0,0,.11v.26l-6.18.05-1.38,0Z"/><path class="cls-1" d="M25,36.17l-.39-.51c-2-2.8-3.95-5.59-5.89-8.41a34.17,34.17,0,0,1-3.15-5.64,13.12,13.12,0,0,1-1.15-4.3,10.91,10.91,0,0,1,1-5.25,10.72,10.72,0,0,1,5-5.43,9.49,9.49,0,0,1,5.16-1.09A10.17,10.17,0,0,1,31.26,7.7a11.3,11.3,0,0,1,4.07,6.62,10.32,10.32,0,0,1,.23,3.46,13,13,0,0,1-1,3.51,30.33,30.33,0,0,1-3.1,5.64c-1.8,2.64-3.65,5.24-5.49,7.86l-.75,1.07C25.2,36,25.1,36.05,25,36.17Zm0-25.36a5.1,5.1,0,0,0-5.07,5,5.08,5.08,0,0,0,10.16,0A5.09,5.09,0,0,0,25,10.81Z"/></svg>