<svg xmlns="http://www.w3.org/2000/svg" viewBox="0 0 43.14 32.87"><defs><style>.cls-1{fill:#fefefe;}.cls-2{fill:#060505;}.cls-3{fill:#020202;}</style></defs><g id="Layer_2" data-name="Layer 2"><g id="Layer_1-2" data-name="Layer 1"><path class="cls-1" d="M26.6,7.59h8.26c1.52,0,3,0,4.55,0A3.77,3.77,0,0,0,42.67,2a3.72,3.72,0,0,0-3.49-2H13.69A3.79,3.79,0,0,0,14,7.58Z"/><path class="cls-1" d="M26.64,12.64H18.09c-1.42,0-2.84,0-4.25,0a3.77,3.77,0,0,0-3.26,5.58,3.67,3.67,0,0,0,3.45,2H39.56a3.79,3.79,0,0,0-.28-7.57Z"/><path class="cls-1" d="M26.63,32.86H39.31a3.79,3.79,0,1,0,0-7.58H13.67A3.79,3.79,0,0,0,14,32.86Z"/><path class="cls-2" d="M0,3c.25-.3.25-.69.44-1A3.83,3.83,0,0,1,4.25,0,3.84,3.84,0,0,1,7.49,2.92a3.84,3.84,0,0,1-1.57,4A3.8,3.8,0,0,1,.18,5c0-.14,0-.3-.18-.4Z"/><path class="cls-2" d="M0,15.68c.25-.3.25-.69.44-1a3.8,3.8,0,0,1,7.05.9,3.85,3.85,0,0,1-1.57,4,3.8,3.8,0,0,1-5.74-2c0-.14,0-.3-.18-.4Z"/><path class="cls-2" d="M0,28.31c.25-.29.25-.68.44-1a3.8,3.8,0,0,1,7.05.9,3.85,3.85,0,0,1-1.57,4,3.81,3.81,0,0,1-5.74-2c0-.14,0-.31-.18-.4Z"/><path class="cls-3" d="M26.6,7.59H14A3.79,3.79,0,0,1,13.69,0H39.18a3.72,3.72,0,0,1,3.49,2,3.77,3.77,0,0,1-3.26,5.58c-1.52,0-3,0-4.55,0Z"/><path class="cls-3" d="M26.64,12.64H39.28a3.79,3.79,0,0,1,.28,7.57H14a3.67,3.67,0,0,1-3.45-2,3.77,3.77,0,0,1,3.26-5.58c1.41,0,2.83,0,4.25,0Z"/><path class="cls-3" d="M26.63,32.86H14a3.79,3.79,0,0,1-.28-7.57H39.28a3.79,3.79,0,1,1,0,7.58H26.63Z"/></g></g></svg>