<svg id="Layer_1" data-name="Layer 1" xmlns="http://www.w3.org/2000/svg" xmlns:xlink="http://www.w3.org/1999/xlink" viewBox="0 0 50 50"><defs><style>.cls-1{fill:#394867;}</style></defs><image width="55" height="55" transform="translate(-53 45)" xlink:href="icon/image%201.png"/><path class="cls-1" d="M44,24.51a29.38,29.38,0,0,1-2,11c-.36.86-.8,1.68-1.24,2.5a9.18,9.18,0,0,1-3.91,3.77,23.15,23.15,0,0,1-8.34,2.5,31.92,31.92,0,0,1-7.18.08,22,22,0,0,1-10.47-3.46A9.48,9.48,0,0,1,7.92,37.3,24.29,24.29,0,0,1,5.34,29a30.88,30.88,0,0,1,.06-9.5,21,21,0,0,1,1.73-5.69,13,13,0,0,1,8.36-7A30.19,30.19,0,0,1,24,5.53,27.47,27.47,0,0,1,35.83,7.76a12.61,12.61,0,0,1,6.62,7.44A26.5,26.5,0,0,1,44,24.51ZM8.67,25c0,.52.06,1.42.16,2.3A19.74,19.74,0,0,0,11,34.82a8.48,8.48,0,0,0,2.06,2.69A14,14,0,0,0,18,39.93a24,24,0,0,0,8.48.79,19,19,0,0,0,6.64-1.55,8.63,8.63,0,0,0,4-3,18.58,18.58,0,0,0,1.22-2.06,20.28,20.28,0,0,0,1.9-7.38,22,22,0,0,0-1-9.21,10.78,10.78,0,0,0-5.78-6.63,21.91,21.91,0,0,0-9.1-1.76,23.4,23.4,0,0,0-7,1.09,10.84,10.84,0,0,0-7.08,6.21A21.13,21.13,0,0,0,8.67,25Z"/><path class="cls-1" d="M24.48,39.46a23.19,23.19,0,0,1-7.26-1.18,9,9,0,0,1-5.81-5.74,23,23,0,0,1-1.32-9.49A18.6,18.6,0,0,1,11.3,17.4a9.42,9.42,0,0,1,6.29-5.81,23,23,0,0,1,13.86,0,9.74,9.74,0,0,1,6.71,7.11A22.06,22.06,0,0,1,38.85,27a23.08,23.08,0,0,1-1.24,5.44,9,9,0,0,1-6.14,5.92A23.51,23.51,0,0,1,24.48,39.46ZM19.53,25c0,2,0,4,0,6a2,2,0,0,0,1.55,2,2.13,2.13,0,0,0,1.59-.29c3.37-2,6.74-3.9,10.12-5.85a2,2,0,0,0,0-3.7L22.68,17.3a2,2,0,0,0-3.15,1.81Z"/><path class="cls-1" d="M20.86,25V19.18c0-.85.47-1.11,1.21-.68l10.08,5.82c.68.39.69.94,0,1.33L22,31.51c-.67.38-1.15.1-1.15-.67Z"/></svg>