<svg id="Layer_1" data-name="Layer 1" xmlns="http://www.w3.org/2000/svg" xmlns:xlink="http://www.w3.org/1999/xlink" viewBox="0 0 50 50"><defs><style>.cls-1{fill:#394867;}</style></defs><image width="55" height="55" transform="translate(-53 45)" xlink:href="image%201.png"/><path class="cls-1" d="M3.7,33.73c.11-.8.21-1.61.33-2.41s.14-.89,1-.66l.65.17c.35.07.42.25.33.59a24.13,24.13,0,0,0-.72,3.11c-.16,1.31-.17,2.64-.23,4,0,.22.08.48-.27.5-.65,0-.74,0-.79-.39-.06-.59-.14-1.18-.22-1.77,0-.14-.06-.29-.08-.44Z"/><path class="cls-1" d="M22.55,38.76a3.44,3.44,0,0,1-3-5.07c1.06-2.21,2.15-4.41,3.23-6.61l7.53-15.41a2.1,2.1,0,0,0,.13-.26.55.55,0,0,1,.73-.37c.37.12.44.41.36.77q-1.17,5-2.33,10.08c-1.07,4.64-2.14,9.27-3.2,13.92A3.48,3.48,0,0,1,22.55,38.76Zm.17-5.2A1.69,1.69,0,0,0,21,35.24a1.69,1.69,0,0,0,3.37,0A1.69,1.69,0,0,0,22.72,33.56Z"/><path class="cls-1" d="M44.15,27.5a1.27,1.27,0,0,1-.28.24l-6.43,2.59c-.36.15-.43-.08-.52-.33a14.78,14.78,0,0,0-2.27-4.41,21.72,21.72,0,0,0-1.53-1.8c-.21-.24-.26-.4,0-.67q1.8-2.14,3.57-4.32c.22-.27.4-.26.66-.06A23.19,23.19,0,0,1,44,27.22,2.34,2.34,0,0,1,44.15,27.5Z"/><path class="cls-1" d="M37.26,39a16.18,16.18,0,0,0,.46-4.42c0-.76-.13-1.52-.24-2.28,0-.35,0-.52.4-.62,2.22-.61,4.42-1.25,6.63-1.89.37-.1.54,0,.66.36a25.17,25.17,0,0,1,1.12,8.36c0,.3,0,.53-.45.53H37.52Z"/><path class="cls-1" d="M22.4,18.05c.07,1.21.06,1.11-.72,1.13a15.66,15.66,0,0,0-7.29,2c-.35.19-.53.15-.74-.18-.48-.75-1-1.48-1.49-2.2-.21-.29-.19-.47.1-.68a20.39,20.39,0,0,1,9.48-3.74c.31,0,.42.08.44.38C22.25,16,22.34,17.19,22.4,18.05Z"/><path class="cls-1" d="M12.55,22.24a2.33,2.33,0,0,1-.26.28,18,18,0,0,0-5.35,6.56.36.36,0,0,1-.53.22c-.42-.17-.85-.35-1.28-.49s-.41-.28-.29-.62a18.75,18.75,0,0,1,2.59-5.08C8.24,22,9.17,21,10,20c.23-.28.43-.28.67,0,.52.65,1.07,1.27,1.61,1.9C12.4,22,12.46,22.11,12.55,22.24Z"/><path class="cls-1" d="M31.84,15.57c1.06.54,2.08,1.05,3.08,1.58.27.13.13.34,0,.52L32.77,21c-.27.4-.54.8-.79,1.21s-.33.28-.58.1c-1-.7-1-.69-.71-1.85.35-1.51.69-3,1-4.53C31.75,15.83,31.78,15.75,31.84,15.57Z"/><path class="cls-1" d="M27.71,14.44l-2.44,5c-.06,0-.08,0-.11,0-1.19-.2-1.2-.2-1.15-1.42s.09-2.27.17-3.4c0-.15.19-.4.28-.4C25.52,14.29,26.58,14.37,27.71,14.44Z"/></svg>